<svg width="512" height="512" viewBox="0 0 512 512" fill="none" xmlns="http://www.w3.org/2000/svg">
<path d="M190.05 18.1314C149.252 48.0321 127.74 84.6604 124.031 129.511C119.581 184.08 126.741 220.867 164.571 256C228.365 315.054 336.371 317.296 394.971 256C423.901 226.099 434.097 189.313 434.097 161.655C433.355 148.199 431.871 148.947 423.712 168.382C408.876 201.273 356.209 243.882 322.087 249.862C283.515 256.589 255.327 249.114 220.463 223.699C184.858 198.283 167.055 161.655 167.055 115.309C167.055 74.1952 180.407 45.7895 211.562 18.8789C241.233 -5.78915 222.688 -6.53668 190.05 18.1314Z" fill="url(#paint0_linear_117_4332)"/>
<path d="M112.163 51.7698C63.2052 95.1258 39.4681 181.09 58.0127 247.619C60.9798 259.58 60.9798 268.55 57.2709 268.55C48.3695 268.55 26.116 218.466 26.116 197.536C26.116 159.412 12.764 173.615 4.60435 219.961C-20.6163 365.727 59.4963 481.592 202.66 507.755C322.829 529.433 439.289 466.642 491.956 352.272C517.918 296.208 518.66 222.204 494.181 169.878C484.538 150.442 472.669 131.007 466.735 125.774C457.834 118.299 456.35 123.531 456.35 157.17C456.35 208.748 437.064 249.862 398.491 284.995C353.984 325.361 321.346 337.321 262.745 334.331C199.693 330.594 151.477 302.936 118.839 249.862C99.5525 218.466 96.5854 206.506 96.5854 160.16C98.7429 113.371 106.057 95.0857 120.322 68.2152C133.675 46.5372 142.576 29.3443 141.092 29.3443C139.609 29.3443 126.257 39.8096 112.163 51.7698Z" fill="url(#paint1_linear_117_4332)"/>
<path d="M396.978 134.369C364.664 179.055 286.511 201.398 233.156 179.825C224.938 176.816 214.407 169.85 212.114 172.121C208.457 175.543 216.122 183.958 223.086 190.171C258.405 229.464 318.824 238.379 365.416 212.184C396.978 195.234 415.147 160.914 416.516 129.746C416.914 120.686 416.914 109.714 414.262 109.714C408.263 109.714 403.728 124.741 396.978 134.369Z" fill="url(#paint2_linear_117_4332)"/>
<defs>
<linearGradient id="paint0_linear_117_4332" x1="122.862" y1="150.568" x2="434.097" y2="150.568" gradientUnits="userSpaceOnUse">
<stop stop-color="#8CD23C"/>
<stop offset="1" stop-color="#417A00"/>
</linearGradient>
<linearGradient id="paint1_linear_117_4332" x1="-1.90735e-06" y1="270.672" x2="512" y2="270.672" gradientUnits="userSpaceOnUse">
<stop stop-color="#8CD23C"/>
<stop offset="1" stop-color="#417A00"/>
</linearGradient>
<linearGradient id="paint2_linear_117_4332" x1="211.17" y1="168.406" x2="416.708" y2="168.406" gradientUnits="userSpaceOnUse">
<stop stop-color="#8CD23C"/>
<stop offset="1" stop-color="#417A00"/>
</linearGradient>
</defs>
</svg>